<?xml version="1.0" standalone="no"?>
<!DOCTYPE svg PUBLIC "-//W3C//DTD SVG 20010904//EN"
 "http://www.w3.org/TR/2001/REC-SVG-20010904/DTD/svg10.dtd">
<svg version="1.0" xmlns="http://www.w3.org/2000/svg"
 width="640.000000pt" height="640.000000pt" viewBox="0 0 640.000000 640.000000"
 preserveAspectRatio="xMidYMid meet">

<g transform="translate(0.000000,640.000000) scale(0.100000,-0.100000)"
fill="#000000" stroke="none">
<path d="M0 3200 l0 -3200 1379 0 c758 0 1393 3 1410 6 34 7 42 24 11 24 -11
0 -20 4 -20 9 0 5 -8 8 -17 7 -11 0 -18 6 -17 16 1 10 -8 19 -22 22 -13 4 -24
11 -24 16 0 6 -7 10 -15 10 -8 0 -15 5 -15 10 0 6 7 10 17 10 27 0 5 14 -25
16 -53 3 -58 5 -37 14 16 7 16 9 4 9 -9 1 -19 8 -23 16 -6 15 5 20 18 8 10
-11 37 -12 30 -2 -3 5 -9 7 -14 4 -4 -3 -10 1 -13 7 -3 10 -9 10 -24 2 -15 -9
-24 -8 -41 5 -21 15 -19 16 39 13 45 -3 59 -1 54 8 -4 6 -13 9 -20 6 -19 -7
-82 27 -77 42 2 7 -5 12 -15 13 -10 0 -13 3 -5 6 26 10 10 23 -30 24 -36 0
-39 2 -20 9 12 5 22 12 22 16 0 3 -6 4 -14 1 -15 -6 -36 11 -36 28 0 5 4 4 9
-4 5 -8 11 -9 15 -3 3 6 -3 13 -14 17 -11 3 -20 11 -20 16 0 6 -4 8 -9 4 -5
-3 -13 0 -17 6 -4 7 -3 9 4 5 6 -3 13 -2 16 3 4 5 -3 12 -14 16 -11 4 -18 11
-14 16 3 6 -1 18 -9 27 -23 27 -29 54 -15 65 9 6 8 7 -5 3 -26 -8 -41 3 -26
20 9 11 8 14 -4 14 -10 0 -14 6 -11 14 4 10 -5 18 -28 25 -18 5 -25 10 -15 10
9 1 17 6 17 11 0 6 -8 10 -17 10 -15 0 -16 2 -3 10 13 8 12 10 -3 10 -10 0
-17 5 -15 12 2 6 -4 20 -15 31 -10 10 -16 22 -12 25 3 4 9 2 13 -4 7 -11 47
-19 150 -30 46 -6 52 -4 52 12 0 16 2 16 10 4 5 -8 12 -11 16 -8 11 11 -4 38
-21 38 -9 0 -23 7 -31 15 -9 8 -11 15 -5 15 5 0 13 -4 16 -10 3 -5 17 -10 29
-10 22 0 23 -4 29 -97 7 -113 14 -123 88 -123 101 0 125 33 114 162 -3 46 -8
304 -10 573 -3 270 -6 559 -7 642 -2 84 -1 153 2 153 3 0 28 -6 55 -13 l50
-13 0 -108 0 -108 50 -29 c28 -16 71 -32 97 -35 47 -6 47 -7 54 -52 5 -30 17
-55 38 -78 17 -18 44 -67 60 -109 30 -79 31 -106 10 -265 l-6 -45 65 -48 c73
-53 124 -77 163 -77 l27 0 -5 -67 c-8 -111 -42 -160 -180 -257 -37 -26 -73
-56 -79 -68 -10 -18 -17 -20 -62 -15 l-52 6 46 -15 c44 -14 46 -16 47 -56 1
-23 5 -45 10 -48 4 -4 83 -3 177 2 111 5 180 5 199 -2 16 -5 60 -10 97 -10
l68 0 12 -42 c21 -79 7 -160 -55 -317 -32 -80 -64 -157 -72 -173 l-15 -28 40
0 c46 0 61 16 61 65 0 8 4 15 9 15 5 0 7 -9 4 -19 -4 -17 -1 -19 19 -13 17 4
19 7 7 10 -18 3 -15 42 4 42 6 0 7 3 4 6 -4 4 -14 1 -23 -7 -16 -13 -17 -12
-11 11 7 27 42 210 58 301 5 30 9 71 10 90 0 20 3 28 7 19 11 -23 33 -23 39 0
5 18 11 20 42 14 20 -4 45 -15 56 -25 19 -17 37 -18 233 -15 117 2 215 6 219
10 3 3 15 -2 25 -11 17 -15 20 -15 28 -3 8 13 10 13 10 1 0 -10 8 -7 26 10 24
21 26 22 16 3 -10 -19 -8 -21 17 -19 15 1 33 5 41 10 9 5 11 4 6 -3 -5 -8 7
-10 38 -8 25 1 43 -1 40 -6 -3 -4 -14 -8 -25 -8 -10 0 -19 -7 -19 -15 0 -20 6
-19 43 6 25 17 24 14 -8 -15 -22 -19 -48 -35 -57 -36 -9 0 -20 -5 -23 -10 -4
-6 -14 -9 -23 -8 -10 2 -17 -4 -17 -12 -1 -26 -16 -42 -36 -37 -10 3 -18 2
-17 -2 2 -20 -5 -30 -24 -34 -19 -3 -17 -5 7 -6 29 -2 29 -3 -10 -16 -22 -7
-33 -14 -25 -14 8 -1 2 -8 -15 -15 -16 -7 -33 -9 -36 -4 -3 5 -14 5 -24 2 -15
-6 -11 -10 21 -20 36 -11 34 -14 -13 -18 -23 -2 -45 -15 -39 -24 2 -4 -7 -8
-21 -9 -14 0 -30 -7 -37 -13 -8 -10 -7 -12 7 -7 23 8 23 -16 0 -34 -16 -12
-17 -12 -5 2 10 14 9 17 -6 21 -10 3 -27 -1 -37 -8 -10 -8 -14 -14 -7 -14 6 0
9 -7 6 -15 -4 -8 -10 -15 -16 -15 -5 0 -6 5 -3 10 10 17 -12 11 -26 -7 -8 -10
-9 -14 -2 -10 6 4 14 3 18 -3 4 -6 11 -7 17 -4 8 5 9 1 5 -11 -7 -16 -5 -16
15 -3 24 14 68 13 68 -2 0 -5 15 -7 33 -3 29 6 31 5 18 -10 -8 -11 -28 -17
-52 -17 -22 0 -39 -4 -39 -8 0 -5 -10 -14 -22 -20 -17 -7 309 -11 1140 -11
l1162 -1 0 3200 0 3200 -3200 0 -3200 0 0 -3200z m3097 3130 c17 0 23 -4 20
-14 -4 -9 0 -12 13 -9 11 3 16 11 13 19 -8 22 11 17 25 -7 10 -15 20 -19 37
-15 13 3 25 1 27 -5 2 -6 16 -11 32 -11 16 0 32 -8 39 -19 7 -11 23 -19 38
-19 14 0 34 -9 44 -20 10 -11 26 -22 36 -25 11 -4 19 -10 19 -15 0 -5 -6 -7
-14 -4 -7 3 -16 -2 -19 -10 -4 -10 -1 -16 9 -16 22 0 94 -39 100 -54 3 -8 25
-17 49 -20 30 -5 44 -12 48 -26 2 -10 15 -20 28 -22 12 -1 24 -9 27 -17 3 -10
-2 -11 -19 -6 -18 5 -12 -4 25 -39 27 -25 52 -44 54 -41 3 3 12 -1 21 -9 16
-14 20 -16 44 -16 8 0 7 -4 -3 -10 -13 -9 -13 -10 0 -10 8 0 22 -5 30 -10 13
-8 12 -11 -5 -24 -11 -8 -35 -17 -52 -21 -28 -5 -33 -10 -33 -35 0 -23 5 -30
28 -34 20 -5 27 -13 28 -31 2 -27 -6 -30 -136 -50 -61 -9 -140 -35 -140 -45 0
-5 -12 -11 -27 -13 -16 -2 4 -5 43 -6 65 -1 75 -4 104 -31 18 -16 26 -30 19
-30 -7 0 -9 -3 -5 -7 4 -5 13 -8 18 -8 6 0 21 -17 32 -37 12 -21 25 -37 29
-37 10 0 43 -37 65 -73 9 -16 20 -28 24 -28 4 0 8 -9 8 -19 0 -10 7 -21 15
-25 8 -3 15 -12 15 -20 0 -8 12 -24 28 -35 15 -11 21 -21 15 -21 -9 0 -7 -6 5
-19 54 -58 72 -80 72 -90 0 -6 4 -11 9 -11 5 0 13 -9 16 -20 3 -11 13 -20 21
-20 8 0 17 -8 21 -17 9 -27 45 -63 62 -63 12 0 13 -2 3 -8 -15 -10 2 -27 56
-58 17 -10 32 -24 32 -30 0 -7 11 -15 24 -18 13 -3 31 -17 40 -32 20 -30 127
-134 138 -134 5 0 8 -6 8 -14 0 -8 7 -17 15 -20 9 -3 15 -11 14 -18 -3 -17 28
-85 41 -93 6 -4 8 -16 4 -28 -6 -20 -5 -21 11 -7 17 14 18 13 11 -30 -4 -24
-8 -45 -10 -47 -2 -2 -220 38 -296 55 -19 4 -12 7 27 12 30 3 60 13 70 23 16
15 16 19 2 32 -14 14 -31 13 -165 -9 -82 -13 -150 -24 -151 -23 -1 1 -6 35
-12 76 -13 101 -55 179 -143 273 -58 62 -86 82 -135 103 -34 14 -81 25 -103
25 -27 0 -43 5 -46 15 -3 8 2 60 11 116 15 87 16 113 5 178 -19 117 -46 193
-80 226 l-30 29 0 -30 c0 -16 11 -76 25 -134 25 -107 33 -242 15 -270 -12 -19
-13 -16 -33 56 -40 148 -78 233 -130 290 -70 77 -112 96 -224 102 -92 5 -93 4
-93 -18 0 -13 20 -67 45 -120 63 -138 108 -370 72 -370 -22 0 -102 56 -167
115 -79 72 -127 94 -208 95 l-63 0 2 389 c1 418 0 430 -52 477 -20 18 -19 18
7 41 15 13 38 23 51 23 12 0 23 4 23 9 0 6 27 15 60 22 33 6 60 16 60 21 0 6
6 8 14 5 8 -3 16 -1 18 4 2 6 23 11 46 12 23 1 42 5 42 10 0 4 16 7 35 7 19 0
35 -4 35 -10 0 -5 5 -10 11 -10 5 0 8 4 4 9 -3 5 3 11 12 13 10 2 20 0 21 -4
2 -4 15 -8 29 -8z m-595 -939 c0 -83 -3 -117 -14 -127 -7 -7 -54 -38 -104 -67
-85 -51 -90 -52 -86 -29 4 23 3 23 -19 11 -45 -23 -192 -138 -285 -221 -16
-14 -21 -15 -21 -4 0 8 3 14 6 13 3 -1 8 3 10 8 8 17 29 35 42 35 7 0 10 3 6
6 -3 4 0 19 9 35 8 16 11 29 7 29 -5 0 -1 6 8 13 9 7 19 25 23 40 3 15 11 25
16 22 5 -3 7 4 5 15 -2 13 1 20 11 20 8 0 14 5 14 10 0 6 -5 10 -10 10 -6 0
-2 10 10 22 11 12 20 27 20 34 0 7 5 14 12 16 13 5 22 48 10 48 -4 0 -13 -5
-20 -12 -9 -9 -12 -8 -12 5 0 9 -8 17 -17 18 -10 0 -13 3 -6 5 7 3 9 12 6 20
-3 8 0 14 6 14 6 0 11 7 11 15 0 8 6 15 13 16 7 0 8 2 1 5 -12 5 5 94 18 94 5
0 8 11 8 24 0 13 7 26 15 30 15 5 22 27 8 25 -22 -4 -24 3 -8 21 10 11 13 20
8 20 -7 0 -6 13 3 38 7 20 17 36 22 35 5 -1 8 9 6 23 -1 14 5 29 15 37 10 6
21 24 24 38 4 14 20 41 37 60 34 38 40 72 13 63 -17 -5 -17 -5 0 6 10 6 25 29
34 51 8 22 17 38 20 35 8 -8 103 93 105 111 2 25 19 -596 20 -736z m1323 339
c3 -5 1 -10 -4 -10 -6 0 -11 5 -11 10 0 6 2 10 4 10 3 0 8 -4 11 -10z m1230
-543 c66 -44 145 -100 175 -126 406 -336 703 -838 809 -1366 31 -156 63 -579
45 -597 -3 -3 -7 -57 -9 -119 -7 -234 -71 -511 -181 -786 -72 -180 -136 -291
-295 -518 -264 -376 -559 -630 -954 -821 -315 -153 -609 -228 -943 -239 l-167
-5 80 23 c116 33 137 46 163 97 19 38 22 60 22 153 0 59 -5 139 -11 177 l-12
69 48 53 c94 103 100 128 58 211 -20 40 -27 67 -27 118 -1 55 -5 70 -27 96
-14 17 -31 46 -39 64 -7 19 -25 46 -38 61 -25 28 -25 29 -13 93 13 64 13 67
-12 103 -14 20 -28 47 -32 60 -6 21 -3 20 40 -12 26 -20 77 -45 117 -57 106
-32 190 -24 343 35 66 25 123 46 128 46 19 0 89 56 108 86 11 19 27 34 35 34
8 0 50 23 93 50 43 27 85 50 94 50 9 0 52 -16 96 -35 89 -39 117 -44 107 -19
-4 9 -18 57 -32 106 l-25 88 29 38 c17 20 47 53 68 72 21 19 31 26 23 15 -32
-40 -39 -61 -29 -95 10 -36 -3 -65 -24 -53 -6 4 -4 -4 5 -17 13 -21 14 -37 6
-100 -5 -41 -11 -82 -14 -90 -2 -8 -4 -17 -5 -20 0 -3 -6 -20 -13 -37 -10 -24
-11 -33 -3 -33 7 0 3 -6 -8 -14 -10 -8 -16 -18 -12 -22 8 -8 -22 -64 -34 -64
-4 0 -5 -6 -2 -14 3 -8 -4 -23 -15 -33 -12 -9 -21 -21 -21 -26 0 -5 7 -4 15 3
10 8 15 9 15 2 0 -6 -9 -16 -20 -22 -11 -6 -19 -18 -18 -27 2 -9 -6 -22 -18
-28 -11 -5 -19 -16 -16 -23 2 -7 -2 -11 -9 -10 -8 2 -15 -7 -17 -19 -2 -12
-11 -27 -20 -35 -15 -12 -16 -11 -3 4 8 11 9 18 3 18 -6 0 -14 -9 -17 -20 -3
-11 -13 -20 -22 -20 -9 0 -13 -6 -9 -15 3 -9 0 -15 -10 -15 -8 0 -17 -7 -20
-15 -4 -8 -11 -15 -16 -15 -6 0 -33 -24 -59 -52 -27 -29 -49 -48 -49 -43 0 5
-22 -15 -50 -45 -28 -30 -50 -59 -50 -65 0 -6 -14 -22 -30 -37 -18 -16 -25
-28 -18 -30 13 -5 7 -14 -37 -60 l-20 -21 20 7 c16 6 18 5 8 -5 -7 -7 -13 -21
-13 -31 0 -10 -5 -18 -11 -18 -7 0 -9 -10 -5 -24 3 -14 1 -28 -6 -32 -7 -5 -8
-2 -3 7 6 10 5 11 -3 4 -6 -5 -12 -32 -13 -58 -2 -31 -8 -51 -18 -57 -10 -6
-11 -10 -4 -10 9 0 10 -7 4 -22 -20 -53 -31 -97 -29 -110 2 -7 -3 -12 -11 -10
-12 3 -12 0 -1 -12 11 -14 7 -20 -11 -18 -4 1 -5 -8 -2 -18 3 -11 0 -27 -7
-35 -6 -8 -9 -19 -5 -25 3 -5 2 -10 -3 -10 -5 0 -9 -7 -9 -15 0 -8 4 -15 9
-15 4 0 8 -4 8 -10 0 -5 -4 -10 -9 -10 -5 0 -33 -11 -62 -25 -74 -34 -26 -23
151 35 262 85 543 236 754 403 56 45 159 137 229 206 112 110 149 154 282 346
195 281 297 484 379 755 129 427 140 933 31 1370 -47 186 -138 425 -217 569
-182 334 -436 615 -741 824 -65 44 -121 85 -124 90 -10 16 100 -49 232 -136z
m-2621 -248 c66 -74 78 -118 70 -271 l-7 -127 -54 -37 c-29 -20 -62 -49 -73
-63 -35 -50 -51 -143 -51 -292 1 -131 0 -139 -19 -139 -26 0 -32 14 -19 47 7
15 13 53 15 83 4 67 13 183 15 190 2 6 6 71 8 135 3 85 -7 207 -18 218 -15 15
-14 30 1 21 8 -5 9 -2 4 11 -4 11 -9 85 -12 165 -3 80 -6 150 -9 156 -8 25
107 -50 149 -97z m2134 -382 c11 -19 27 -46 37 -60 9 -15 15 -27 13 -27 -6 0
-78 107 -78 115 0 12 9 3 28 -28z m-238 -338 c19 -17 27 -28 18 -25 -9 2 -44
8 -77 12 -87 10 -82 35 9 42 8 1 31 -12 50 -29z m-1593 -151 c9 -10 49 -34 89
-53 63 -30 73 -39 79 -67 5 -21 4 -33 -4 -36 -40 -13 -44 -70 -10 -133 17 -33
167 -152 232 -185 44 -23 49 -23 76 -10 33 18 40 14 33 -19 -3 -17 -21 -34
-58 -55 -85 -48 -191 -200 -266 -382 -38 -92 -46 -95 -128 -45 -90 54 -90 52
-89 562 0 237 3 453 6 480 l7 50 8 -44 c4 -24 15 -52 25 -63z m1654 -78 c-1
-28 1 -50 6 -50 4 0 28 14 53 30 49 32 70 39 50 15 -6 -8 -9 -18 -6 -24 3 -5
2 -21 -4 -35 -7 -18 -6 -26 1 -26 8 0 8 -4 0 -13 -6 -8 -9 -24 -6 -37 2 -12 1
-20 -2 -16 -4 3 -14 -11 -24 -31 -13 -28 -14 -40 -6 -45 9 -6 9 -8 0 -8 -7 0
-19 -15 -28 -32 -8 -18 -28 -48 -45 -66 -18 -21 -26 -40 -23 -49 4 -10 2 -14
-4 -10 -12 7 -82 -127 -89 -170 -3 -15 -6 -35 -7 -43 -2 -9 -6 -21 -10 -27 -4
-6 -2 -13 3 -15 6 -2 12 -20 13 -39 1 -20 7 -43 13 -50 21 -28 28 -42 15 -34
-10 6 -11 3 -2 -14 7 -11 16 -21 21 -21 6 0 10 -7 10 -15 0 -8 9 -20 20 -27
11 -7 20 -18 20 -25 0 -7 5 -13 10 -13 6 0 10 -7 10 -16 0 -8 5 -12 10 -9 6 3
10 -1 10 -9 0 -9 7 -16 15 -16 8 0 20 -9 27 -20 7 -11 20 -20 29 -20 8 0 25
-9 37 -20 12 -11 26 -20 32 -20 5 0 9 -6 7 -12 -1 -7 3 -12 10 -11 6 1 17 -4
23 -12 7 -8 19 -15 26 -15 8 0 11 -6 8 -15 -4 -9 1 -18 12 -23 47 -19 84 -49
84 -65 0 -10 4 -16 8 -13 5 3 16 -13 26 -34 9 -22 21 -39 27 -37 5 1 23 -22
40 -52 17 -29 26 -50 20 -47 -6 4 -11 3 -11 -2 0 -6 7 -13 16 -16 11 -4 14
-13 11 -27 -4 -15 -2 -19 9 -15 8 3 13 2 9 -3 -3 -5 1 -12 7 -15 7 -3 -25 -4
-71 -3 l-84 2 -53 85 c-29 46 -57 86 -62 88 -8 2 -72 -163 -72 -188 0 -9 -50
-35 -54 -28 -1 2 -18 37 -39 78 -51 104 -110 154 -214 181 -79 20 -96 19 -190
-7 l-53 -15 0 -58 c0 -80 15 -92 124 -101 92 -7 120 -20 160 -73 40 -52 56
-101 56 -169 0 -79 -23 -131 -79 -181 -80 -72 -231 -127 -309 -112 -37 7 -102
64 -102 89 0 16 23 37 43 40 27 4 47 28 47 57 0 16 -26 82 -59 147 -32 64 -66
142 -75 173 -9 31 -23 63 -33 70 -31 26 -73 103 -73 133 0 17 9 54 19 81 10
28 22 76 26 108 4 31 13 61 20 65 7 4 22 23 33 41 16 26 18 38 10 48 -8 11 -5
20 14 41 56 60 59 83 22 197 -26 79 -26 82 -13 194 12 108 12 114 -6 127 -11
8 -26 12 -34 10 -9 -3 -37 -8 -62 -11 l-46 -7 -7 47 c-12 90 -8 143 12 149 9
3 114 12 232 21 250 19 277 22 286 36 7 13 -32 56 -58 65 -27 8 -22 24 10 25
15 0 77 11 137 23 61 12 112 21 114 19 3 -2 4 -26 2 -53z m-2155 -132 c50 -47
52 -59 23 -149 -33 -103 -42 -98 -35 20 l7 104 -43 45 c-53 55 -17 40 48 -20z
m1471 16 c-3 -3 -12 -4 -19 -1 -8 3 -5 6 6 6 11 1 17 -2 13 -5z m-1244 -151
l47 -17 -2 -320 -3 -320 -34 -7 c-18 -4 -42 -16 -53 -27 -19 -19 -19 -22 -5
-115 11 -64 27 -120 50 -169 65 -137 66 -182 9 -350 -20 -59 -31 -78 -45 -78
-10 0 -26 -4 -35 -9 -9 -5 -37 -11 -62 -15 -36 -5 -41 -4 -24 5 19 10 20 19
20 159 -1 81 -4 146 -8 144 -4 -3 -5 10 -2 28 8 53 10 98 4 98 -7 0 -4 93 5
137 3 19 3 33 -2 30 -5 -3 -7 11 -5 31 3 36 3 187 -1 490 -1 90 2 152 8 152 5
0 4 5 -3 12 -7 7 -12 31 -12 54 0 36 5 46 38 73 43 36 52 37 115 14z m1978
-30 c-12 -20 -14 -14 -5 12 4 9 9 14 11 11 3 -2 0 -13 -6 -23z m-146 -423 c3
-5 1 -10 -4 -10 -6 0 -11 5 -11 10 0 6 2 10 4 10 3 0 8 -4 11 -10z m-1498
-587 c29 -9 53 -20 53 -25 0 -5 -16 -40 -36 -79 -19 -39 -48 -110 -63 -158
-20 -60 -34 -87 -46 -89 -16 -4 -17 8 -13 170 2 95 7 179 12 186 10 16 29 15
93 -5z m-557 -410 c0 -5 36 -37 81 -72 l80 -64 -6 -76 c-4 -42 -13 -86 -21
-98 -28 -44 -13 -44 49 -1 34 25 68 48 74 52 10 6 13 -69 12 -353 0 -198 2
-365 6 -371 4 -6 4 -105 0 -220 l-7 -208 -87 52 c-81 50 -86 55 -83 84 2 17
-1 48 -7 69 -8 29 -7 42 4 60 9 13 11 23 5 23 -5 0 -10 4 -10 10 0 5 7 6 17 3
12 -5 14 -3 7 8 -5 8 -10 70 -11 139 -1 69 -3 142 -6 162 -2 21 -1 35 4 33 8
-6 6 35 -3 50 -3 6 -2 33 2 60 4 28 5 54 2 60 -10 17 -9 84 2 78 5 -4 6 -1 1
7 -5 7 -10 88 -11 179 -2 91 -4 166 -5 166 0 0 -2 10 -3 23 -2 13 -28 49 -60
81 -31 31 -53 60 -50 64 10 9 24 9 24 0z m2190 -1903 c0 -5 -5 -10 -11 -10 -5
0 -7 5 -4 10 3 6 8 10 11 10 2 0 4 -4 4 -10z m-55 -50 c-3 -5 -11 -10 -16 -10
-6 0 -7 5 -4 10 3 6 11 10 16 10 6 0 7 -4 4 -10z m-1602 -307 c-7 -2 -19 -2
-25 0 -7 3 -2 5 12 5 14 0 19 -2 13 -5z"/>
<path d="M3275 6260 c3 -5 8 -10 11 -10 2 0 4 5 4 10 0 6 -5 10 -11 10 -5 0
-7 -4 -4 -10z"/>
<path d="M3360 6222 c6 -13 14 -21 18 -18 3 4 -2 14 -12 24 -18 16 -18 16 -6
-6z"/>
<path d="M3705 5800 c3 -5 8 -10 11 -10 2 0 4 5 4 10 0 6 -5 10 -11 10 -5 0
-7 -4 -4 -10z"/>
<path d="M3740 5430 c0 -5 5 -10 11 -10 5 0 7 5 4 10 -3 6 -8 10 -11 10 -2 0
-4 -4 -4 -10z"/>
<path d="M4715 1810 c-3 -5 -2 -10 4 -10 5 0 13 5 16 10 3 6 2 10 -4 10 -5 0
-13 -4 -16 -10z"/>
<path d="M4331 1424 c0 -11 3 -14 6 -6 3 7 2 16 -1 19 -3 4 -6 -2 -5 -13z"/>
<path d="M2958 693 c7 -3 16 -2 19 1 4 3 -2 6 -13 5 -11 0 -14 -3 -6 -6z"/>
<path d="M4253 283 c-15 -5 -17 -23 -4 -23 5 0 11 7 15 15 3 8 4 15 3 14 -1 0
-8 -3 -14 -6z"/>
<path d="M4130 200 c-9 -6 -10 -10 -3 -10 6 0 15 5 18 10 8 12 4 12 -15 0z"/>
<path d="M4065 170 c-3 -5 -1 -10 4 -10 6 0 11 5 11 10 0 6 -2 10 -4 10 -3 0
-8 -4 -11 -10z"/>
<path d="M2718 103 c6 -2 18 -2 25 0 6 3 1 5 -13 5 -14 0 -19 -2 -12 -5z"/>
<path d="M3613 13 c9 -2 23 -2 30 0 6 3 -1 5 -18 5 -16 0 -22 -2 -12 -5z"/>
</g>
</svg>
